<svg xmlns="http://www.w3.org/2000/svg" width="39" height="30" viewBox="0 0 39 30">
    <g fill="#FFF" fill-rule="nonzero" stroke="#FFF">
        <path d="M8.327 1h-6.66A.667.667 0 0 0 1 1.667v6.666a.667.667 0 1 0 1.332 0v-6h5.995a.667.667 0 0 0 0-1.333zM8.327 27.667H2.332v-6a.666.666 0 1 0-1.332 0v6.666c0 .369.298.667.666.667h6.66a.666.666 0 0 0 0-1.333zM37.334 21a.666.666 0 0 0-.666.667v6h-5.995a.666.666 0 1 0 0 1.333h6.66a.666.666 0 0 0 .667-.667v-6.666a.666.666 0 0 0-.666-.667zM37.334 1h-6.66a.666.666 0 0 0 0 1.333h5.994v6a.666.666 0 1 0 1.332 0V1.667A.666.666 0 0 0 37.334 1z"/>
    </g>
</svg>
