<svg xmlns="http://www.w3.org/2000/svg" width="38" height="31" viewBox="0 0 38 31">
    <g fill="none" fill-rule="evenodd">
        <path d="M-6-11h52v52H-6z"/>
        <path stroke="#FFF" stroke-width="2" d="M7 11.389l10.111-7.222v23.11L7 20.057H1.942a.72.72 0 0 1-.72-.72v-7.227a.72.72 0 0 1 .72-.72H7z"/>
        <path fill="#FFF" fill-rule="nonzero" d="M20.044 9.457c.058.067.176.214.333.434.269.376.539.811.791 1.297.717 1.38 1.146 2.879 1.146 4.436a8.11 8.11 0 0 1-1.124 4.134c-.246.421-.509.79-.77 1.1-.15.178-.26.294-.312.342a.903.903 0 1 0 1.229 1.323c.372-.346.896-.97 1.412-1.855a9.902 9.902 0 0 0 1.37-5.044c0-1.874-.507-3.648-1.348-5.268-.505-.971-1.014-1.684-1.37-2.09a.903.903 0 1 0-1.357 1.19zM25.934 5.953c.054.044.187.173.373.399.333.402.672.921.993 1.567.942 1.898 1.514 4.436 1.514 7.705 0 3.26-.569 5.69-1.5 7.414a6.296 6.296 0 0 1-.964 1.366 2.435 2.435 0 0 1-.337.308.903.903 0 0 0 .974 1.52c.527-.338 1.237-1.08 1.916-2.336 1.079-1.998 1.716-4.722 1.716-8.272 0-3.543-.634-6.355-1.702-8.508-.663-1.336-1.35-2.166-1.851-2.57a.903.903 0 0 0-1.132 1.407z"/>
        <path fill="#FFF" fill-rule="nonzero" d="M30.938 1.575c.028.026.093.092.19.195.17.18.36.399.566.654.598.74 1.199 1.627 1.76 2.658 1.613 2.96 2.582 6.476 2.582 10.542 0 4.06-.966 7.47-2.571 10.26a15.36 15.36 0 0 1-1.747 2.468c-.204.233-.393.43-.56.592a4.227 4.227 0 0 1-.184.17.903.903 0 0 0 1.163 1.382c.202-.17.529-.486.938-.953a17.157 17.157 0 0 0 1.955-2.758c1.759-3.056 2.812-6.775 2.812-11.161 0-4.381-1.05-8.19-2.802-11.406a19.53 19.53 0 0 0-1.941-2.928 10.865 10.865 0 0 0-.926-1.032.903.903 0 1 0-1.235 1.317z"/>
    </g>
</svg>
