<?xml version="1.0" encoding="utf-8"?>
<!-- Generator: Adobe Illustrator 22.0.0, SVG Export Plug-In . SVG Version: 6.00 Build 0)  -->
<svg version="1.1" id="Layer_1" xmlns="http://www.w3.org/2000/svg" xmlns:xlink="http://www.w3.org/1999/xlink" x="0px" y="0px"
	 viewBox="0 0 38 31" style="enable-background:new 0 0 38 31;" xml:space="preserve">
<style type="text/css">
	.st0{fill:none;stroke:#FFFFFF;stroke-width:2;}
	.st1{fill:#FFFFFF;}
</style>
<g>
	<path class="st0" d="M7,11.4l10.1-7.2v23.1L7,20.1H1.9c-0.4,0-0.7-0.3-0.7-0.7v-7.2c0-0.4,0.3-0.7,0.7-0.7c0,0,0,0,0,0L7,11.4
		L7,11.4z"/>
	<path class="st1" d="M22.8,10.4c-0.5-1-1-1.7-1.4-2.1c-0.3-0.4-0.9-0.4-1.3-0.1C19.7,8.5,19.7,9,20,9.4c0,0,0,0,0,0v0
		c0.1,0.1,0.2,0.2,0.3,0.4c0.3,0.4,0.5,0.8,0.8,1.3c0.7,1.4,1.1,2.9,1.1,4.4c0,1.5-0.4,2.9-1.1,4.1c-0.2,0.4-0.5,0.8-0.8,1.1
		c-0.1,0.2-0.3,0.3-0.3,0.3c-0.4,0.3-0.4,0.9-0.1,1.3c0.3,0.4,0.9,0.4,1.3,0.1c0,0,0,0,0,0c0.4-0.3,0.9-1,1.4-1.9
		c0.9-1.5,1.4-3.3,1.4-5C24.1,13.8,23.6,12,22.8,10.4z"/>
</g>
</svg>
