<?xml version="1.0" encoding="utf-8"?>
<!-- Generator: Adobe Illustrator 22.0.0, SVG Export Plug-In . SVG Version: 6.00 Build 0)  -->
<svg version="1.1" id="Layer_1" xmlns="http://www.w3.org/2000/svg" xmlns:xlink="http://www.w3.org/1999/xlink" x="0px" y="0px"
	 viewBox="0 0 38 31" style="enable-background:new 0 0 38 31;" xml:space="preserve">
<style type="text/css">
	.st0{fill:none;}
	.st1{fill:none;stroke:#FFFFFF;stroke-width:2;}
	.st2{fill:#FFFFFF;}
</style>
<g>
	<path class="st0" d="M-6-11h52v52H-6V-11z"/>
	<path class="st1" d="M7,11.4l10.1-7.2v23.1L7,20.1H1.9c-0.4,0-0.7-0.3-0.7-0.7v-7.2c0-0.4,0.3-0.7,0.7-0.7c0,0,0,0,0,0L7,11.4
		L7,11.4z"/>
	<path class="st2" d="M20,9.5c0.1,0.1,0.2,0.2,0.3,0.4c0.3,0.4,0.5,0.8,0.8,1.3c0.7,1.4,1.1,2.9,1.1,4.4c0,1.5-0.4,2.9-1.1,4.1
		c-0.2,0.4-0.5,0.8-0.8,1.1c-0.1,0.2-0.3,0.3-0.3,0.3c-0.4,0.3-0.4,0.9-0.1,1.3s0.9,0.4,1.3,0.1c0,0,0,0,0,0c0.4-0.3,0.9-1,1.4-1.9
		c0.9-1.5,1.4-3.3,1.4-5c0-1.9-0.5-3.6-1.3-5.3c-0.5-1-1-1.7-1.4-2.1c-0.3-0.4-0.9-0.4-1.3-0.1C19.7,8.5,19.7,9,20,9.5
		C20,9.4,20,9.4,20,9.5L20,9.5z M25.9,6c0.1,0,0.2,0.2,0.4,0.4c0.3,0.4,0.7,0.9,1,1.6c0.9,1.9,1.5,4.4,1.5,7.7
		c0,3.3-0.6,5.7-1.5,7.4c-0.3,0.5-0.6,1-1,1.4c-0.1,0.1-0.2,0.2-0.3,0.3c-0.4,0.3-0.5,0.8-0.2,1.3c0.3,0.4,0.8,0.5,1.2,0.3
		c0.5-0.3,1.2-1.1,1.9-2.3c1.1-2,1.7-4.7,1.7-8.3c0-3.5-0.6-6.4-1.7-8.5c-0.7-1.3-1.4-2.2-1.9-2.6c-0.4-0.3-1-0.2-1.3,0.2
		C25.5,5.1,25.6,5.6,25.9,6z"/>
</g>
</svg>
