<svg xmlns="http://www.w3.org/2000/svg" width="39" height="29" viewBox="0 0 39 29">
    <g fill="none" fill-rule="nonzero">
        <path stroke="#FFF" stroke-width="2" d="M33.949 1.751c1.82 0 3.302 1.48 3.302 3.295v13.182a3.302 3.302 0 0 1-3.302 3.296h-2.924l-.491.528-4.016 4.33v-4.858H5.051a3.302 3.302 0 0 1-3.302-3.296V5.046A3.303 3.303 0 0 1 5.05 1.751H33.95"/>
        <path fill="#FFF" d="M4.61 12.448h10.829v1H4.61zM17.244 12.448h7.22v1h-7.22zM25.366 12.448h9.024v1h-9.024zM28.073 15.138h6.317v1h-6.317zM12.732 15.138h14.439v1H12.732zM5.512 15.138h6.317v1H5.512z"/>
    </g>
</svg>
