<svg xmlns="http://www.w3.org/2000/svg" width="40" height="40" viewBox="0 0 40 40">
    <path fill="#FFF" fill-rule="nonzero" d="M37.318 9.96a19.916 19.916 0 0 0-7.278-7.278C26.975.894 23.63 0 20 0c-3.628 0-6.974.894-10.039 2.682a19.911 19.911 0 0 0-7.278 7.279C.894 13.025 0 16.37 0 20c0 3.628.894 6.974 2.682 10.04a19.92 19.92 0 0 0 7.28 7.278C13.025 39.106 16.371 40 20 40c3.629 0 6.975-.894 10.04-2.682a19.91 19.91 0 0 0 7.278-7.279C39.106 26.974 40 23.628 40 20s-.894-6.975-2.682-10.04zM30 21.433l-14.166 8.334c-.261.156-.539.234-.834.234a1.85 1.85 0 0 1-.833-.209c-.555-.33-.833-.815-.833-1.458V11.667c0-.642.278-1.129.833-1.458.573-.313 1.128-.304 1.667.025L30 18.568c.556.312.834.79.834 1.432 0 .642-.278 1.12-.834 1.432z"/>
</svg>
